<?xml version="1.0"?>
<svg xmlns="http://www.w3.org/2000/svg" viewBox="0 0 280 420">
  <rect x="2" y="2" width="276" height="416" rx="8" fill="#f5e6c8" stroke="#6b4f10" stroke-width="2.5"/>
  <rect x="6" y="6" width="268" height="408" rx="6" fill="none" stroke="#8b6914" stroke-width="0.8" opacity="0.2"/>
  <path d="M14 380 L14 100 Q140 20 266 100 L266 380 Z" fill="none" stroke="#8b6914" stroke-width="1.5" opacity="0.2"/>
  <path d="M18 376 L18 105 Q140 28 262 105 L262 376 Z" fill="none" stroke="#6b4f10" stroke-width="0.5" opacity="0.18"/>
  <g opacity="0.2">
    <path d="M10 10 L25 10 L10 25 Z" fill="#8b6914"/>
    <path d="M270 10 L255 10 L270 25 Z" fill="#8b6914"/>
    <path d="M10 410 L25 410 L10 395 Z" fill="#8b6914"/>
    <path d="M270 410 L255 410 L270 395 Z" fill="#8b6914"/>
  </g>
  <text x="22" y="390" font-size="12" font-family="serif" fill="#2c1810" font-weight="bold" letter-spacing="2">I</text>
  <text x="258" y="390" text-anchor="end" font-size="12" font-family="serif" fill="#2c1810" font-weight="bold" letter-spacing="2">I</text>
  <text x="140" y="180" text-anchor="middle" font-size="64" opacity="0.35">&#127968;</text>
  <text x="140" y="370" text-anchor="middle" font-size="12" font-family="serif" fill="#2c1810" font-weight="bold" letter-spacing="3">LE BATELEUR</text>
  <text x="140" y="388" text-anchor="middle" font-size="8" font-family="serif" fill="#8b6914" letter-spacing="2">The Magician</text>
  <text x="140" y="405" text-anchor="middle" font-size="6" font-family="serif" fill="#6b4f10" opacity="0.7" font-style="italic">I - Cr&#233;ation</text>
</svg>